<?xml version="1.0" encoding="UTF-8"?>
<svg version="1.1" xmlns="http://www.w3.org/2000/svg" width="1024" height="240">
<path d="M0 0 C6.26237971 3.66550299 11.7785493 8.78314712 15.12890625 15.24609375 C15.12890625 15.90609375 15.12890625 16.56609375 15.12890625 17.24609375 C15.91265625 16.42109375 16.69640625 15.59609375 17.50390625 14.74609375 C20.12890625 12.24609375 20.12890625 12.24609375 22.12890625 12.24609375 C22.12890625 11.25609375 22.12890625 10.26609375 22.12890625 9.24609375 C22.78890625 9.24609375 23.44890625 9.24609375 24.12890625 9.24609375 C24.39703125 8.68921875 24.66515625 8.13234375 24.94140625 7.55859375 C25.33328125 6.79546875 25.72515625 6.03234375 26.12890625 5.24609375 C26.73798828 3.96412109 26.73798828 3.96412109 27.359375 2.65625 C29.12890625 0.24609375 29.12890625 0.24609375 31.66015625 -0.49609375 C43.88954261 -1.04319788 53.71942917 -0.69355764 64.12890625 6.24609375 C66.19192504 8.30911254 66.82201438 9.38176967 67.12890625 12.24609375 C67.78890625 12.24609375 68.44890625 12.24609375 69.12890625 12.24609375 C74.26944051 18.97459502 73.69188994 25.72857929 73.56640625 33.93359375 C73.57349609 35.25166016 73.58058594 36.56972656 73.58789062 37.92773438 C73.51537212 48.86687166 73.51537212 48.86687166 70.12890625 52.24609375 C69.46890625 52.24609375 68.80890625 52.24609375 68.12890625 52.24609375 C68.45890625 53.89609375 68.78890625 55.54609375 69.12890625 57.24609375 C70.11890625 57.24609375 71.10890625 57.24609375 72.12890625 57.24609375 C72.91272378 60.18540948 73.13314241 62.60584658 73.11303711 65.64453125 C73.09229889 68.84504278 73.0793117 72.04554153 73.06640625 75.24609375 C73.05802734 76.365 73.04964844 77.48390625 73.04101562 78.63671875 C73.03779297 79.7040625 73.03457031 80.77140625 73.03125 81.87109375 C73.02601318 82.85335937 73.02077637 83.835625 73.01538086 84.84765625 C72.96755739 87.26041672 72.96755739 87.26041672 74.12890625 89.24609375 C74.25583184 90.68176322 74.35677201 92.11981163 74.44140625 93.55859375 C74.85971776 97.8950897 76.10928514 100.03165837 79.12890625 103.24609375 C79.12890625 103.90609375 79.12890625 104.56609375 79.12890625 105.24609375 C76.17491867 106.23075628 74.27641603 106.36737211 71.19848633 106.35961914 C70.19767532 106.35954361 69.19686432 106.35946808 68.16572571 106.35939026 C67.0875206 106.35422897 66.00931549 106.34906769 64.8984375 106.34375 C63.7928801 106.34233505 62.68732269 106.3409201 61.54826355 106.33946228 C58.01261708 106.33385889 54.47703363 106.32130579 50.94140625 106.30859375 C48.54622487 106.30357919 46.1510425 106.29901621 43.75585938 106.29492188 C37.88018678 106.28388836 32.00455102 106.26714691 26.12890625 106.24609375 C25.515625 104.34765625 25.515625 104.34765625 25.12890625 102.24609375 C25.72703125 101.70984375 26.32515625 101.17359375 26.94140625 100.62109375 C33.50299231 93.49708603 31.20456677 80.37270988 30.875 71.43945312 C30.70732943 62.93263752 30.70732943 62.93263752 33.07421875 59.078125 C33.75226563 58.47355469 34.4303125 57.86898437 35.12890625 57.24609375 C35.62390625 56.25609375 35.62390625 56.25609375 36.12890625 55.24609375 C34.47890625 55.57609375 32.82890625 55.90609375 31.12890625 56.24609375 C31.13676147 55.3171228 31.13676147 55.3171228 31.14477539 54.36938477 C31.16578698 51.51579842 31.17864239 48.66222844 31.19140625 45.80859375 C31.20397461 44.34776367 31.20397461 44.34776367 31.21679688 42.85742188 C31.23672703 36.89830406 30.90500143 31.15541692 30.12890625 25.24609375 C26.32874862 23.39235832 24.48403803 23.1645881 20.31640625 24.12109375 C17.52538409 25.96945279 17.1532118 27.13474991 16.4296875 30.44921875 C15.84904236 38.02022805 16.10070912 45.52947608 16.65917969 53.10131836 C17.0608636 58.78728493 17.1891555 64.45090409 17.24609375 70.1484375 C17.27985825 72.59079769 17.31526795 75.03313014 17.35089111 77.47546387 C17.36944645 79.10356298 17.37960899 80.73178113 17.38104248 82.35998535 C17.38419284 84.68091232 17.41794695 86.99974899 17.45703125 89.3203125 C17.44993134 90.01454819 17.44283142 90.70878387 17.43551636 91.42405701 C17.5781442 97.17183666 19.61384398 99.94932465 23.12890625 104.24609375 C20.07499186 107.30000814 12.02232977 106.4415051 8.06640625 106.55859375 C2.30183923 106.54021575 -0.5933663 106.04851815 -4.87109375 102.24609375 C-5.53109375 102.24609375 -6.19109375 102.24609375 -6.87109375 102.24609375 C-7.86109375 104.22609375 -7.86109375 104.22609375 -8.87109375 106.24609375 C-15.47109375 106.24609375 -22.07109375 106.24609375 -28.87109375 106.24609375 C-27.87109375 102.24609375 -27.87109375 102.24609375 -26.33618164 100.36938477 C-24.40209818 97.56639795 -24.47308893 95.65796929 -24.4296875 92.2734375 C-24.40326172 91.12681641 -24.37683594 89.98019531 -24.34960938 88.79882812 C-24.33607422 87.60580078 -24.32253906 86.41277344 -24.30859375 85.18359375 C-24.27419273 82.81756825 -24.23160789 80.4516434 -24.1796875 78.0859375 C-24.16736084 77.03784912 -24.15503418 75.98976074 -24.14233398 74.90991211 C-23.87109375 72.24609375 -23.87109375 72.24609375 -21.87109375 69.24609375 C-22.53109375 69.24609375 -23.19109375 69.24609375 -23.87109375 69.24609375 C-23.87109375 44.98027097 -23.87109375 44.98027097 -23.80078125 40.76953125 C-23.78224267 39.05338873 -23.76402366 37.33724274 -23.74609375 35.62109375 C-23.72933594 34.7496875 -23.71257813 33.87828125 -23.6953125 32.98046875 C-23.68886719 32.14773437 -23.68242188 31.315 -23.67578125 30.45703125 C-23.66530762 29.69696777 -23.65483398 28.9369043 -23.64404297 28.15380859 C-23.70039268 26.00440601 -23.70039268 26.00440601 -25.87109375 24.24609375 C-29.32773453 23.87037193 -31.19030134 23.79223214 -34.12109375 25.74609375 C-34.69859375 26.24109375 -35.27609375 26.73609375 -35.87109375 27.24609375 C-36.53109375 27.24609375 -37.19109375 27.24609375 -37.87109375 27.24609375 C-38.10954167 41.04622359 -38.10954167 41.04622359 -37.30859375 54.80859375 C-36.69644078 60.70056608 -37.19464704 66.37661767 -37.87109375 72.24609375 C-38.86109375 72.57609375 -39.85109375 72.90609375 -40.87109375 73.24609375 C-41.12140352 75.66229198 -41.12140352 75.66229198 -40.87109375 78.24609375 C-39.88109375 78.90609375 -38.89109375 79.56609375 -37.87109375 80.24609375 C-37.53776106 82.93045433 -37.3585946 85.43057186 -37.30859375 88.12109375 C-37.16403983 94.10669674 -36.96373522 98.03035572 -32.74609375 102.49609375 C-31.81796875 103.36234375 -31.81796875 103.36234375 -30.87109375 104.24609375 C-34.79068369 108.16568369 -50.47317121 106.30281195 -56.00073242 106.31420898 C-59.31676872 106.30726851 -62.63257138 106.29126132 -65.94848633 106.26196289 C-67.5893081 106.2484196 -69.23021608 106.24609375 -70.87109375 106.24609375 C-75.87109375 106.24609375 -80.87109375 106.24609375 -85.87109375 106.24609375 C-85.40034951 103.30394225 -84.58990168 101.84299761 -82.84375 99.33984375 C-79.66616483 93.95731573 -80.31185975 87.81431416 -80.30859375 81.74609375 C-80.25551434 67.65730287 -80.25551434 67.65730287 -76.87109375 61.24609375 C-76.47345112 59.25788062 -76.11654209 57.25877013 -75.87109375 55.24609375 C-77.85109375 55.74109375 -77.85109375 55.74109375 -79.87109375 56.24609375 C-79.87695999 55.69565399 -79.88282623 55.14521423 -79.88887024 54.57809448 C-79.95293978 48.83493186 -80.03739399 43.09232259 -80.13354492 37.34960938 C-80.16674313 35.20808215 -80.19479089 33.06646851 -80.2175293 30.92480469 C-80.25116879 27.84142321 -80.30349029 24.75883006 -80.359375 21.67578125 C-80.36576492 20.72242889 -80.37215485 19.76907654 -80.3787384 18.78683472 C-80.51632557 12.52768597 -81.25309083 7.86409667 -85.87109375 3.24609375 C-85.87109375 2.25609375 -85.87109375 1.26609375 -85.87109375 0.24609375 C-84.72253906 0.25769531 -83.57398438 0.26929687 -82.390625 0.28125 C-71.80558877 0.35355594 -71.80558877 0.35355594 -61.24609375 -0.31640625 C-53.70069283 -1.01201299 -46.41428488 -0.34424295 -38.87109375 0.24609375 C-38.37609375 8.16609375 -38.37609375 8.16609375 -37.87109375 16.24609375 C-37.05125 15.11429688 -36.23140625 13.9825 -35.38671875 12.81640625 C-34.29860542 11.33432085 -33.21004007 9.85256723 -32.12109375 8.37109375 C-31.58226562 7.62472656 -31.0434375 6.87835938 -30.48828125 6.109375 C-29.95976563 5.39394531 -29.43125 4.67851563 -28.88671875 3.94140625 C-28.40493164 3.28156738 -27.92314453 2.62172852 -27.42675781 1.94189453 C-21.47831694 -4.54239145 -7.5568387 -2.99692465 0 0 Z M65.12890625 13.24609375 C66.12890625 15.24609375 66.12890625 15.24609375 66.12890625 15.24609375 Z M50.12890625 103.24609375 C51.12890625 105.24609375 51.12890625 105.24609375 51.12890625 105.24609375 Z " fill="#FFFFFF" transform="translate(816.87109375,100.75390625)"/>
<path d="M0 0 C0.99 0 1.98 0 3 0 C3.5064814 2.70726366 4.005351 5.41557124 4.5 8.125 C4.64308594 8.88554687 4.78617188 9.64609375 4.93359375 10.4296875 C5.70312456 14.68042914 6.16644376 18.65859197 6 23 C6.66 22.67 7.32 22.34 8 22 C8.28875 21.0925 8.5775 20.185 8.875 19.25 C10.08374371 15.75807371 11.43497636 13.64275163 14 11 C14.99 11 15.98 11 17 11 C16.9592334 11.64960693 16.9184668 12.29921387 16.87646484 12.96850586 C16.69630925 15.95754754 16.53554532 18.94734342 16.375 21.9375 C16.31054688 22.95908203 16.24609375 23.98066406 16.1796875 25.03320312 C15.74408948 33.55458945 16.17066141 40.75599211 21 48 C21 48.66 21 49.32 21 50 C21.680625 50.268125 22.36125 50.53625 23.0625 50.8125 C26 52 26 52 29.01538086 53.5625 C33.82723801 55.61658955 38.54111419 55.31969658 43.69140625 55.1875 C44.71370834 55.17614014 45.73601044 55.16478027 46.78929138 55.15307617 C51.13351086 55.10442856 55.47685886 55.02050068 59.82055664 54.93847656 C91.36274053 54.39460468 91.36274053 54.39460468 102.875 62.375 C103.47957031 62.74882813 104.08414063 63.12265625 104.70703125 63.5078125 C106.4296875 64.6484375 106.4296875 64.6484375 109 67 C109.3828125 69.7890625 109.3828125 69.7890625 109 72 C109.99 72.33 110.98 72.66 112 73 C111.01 74.98 111.01 74.98 110 77 C110.99 76.67 111.98 76.34 113 76 C113.33 75.01 113.66 74.02 114 73 C114.66 73 115.32 73 116 73 C117.65625 75.16015625 117.65625 75.16015625 119.5 78.0625 C120.1084375 79.00222656 120.716875 79.94195312 121.34375 80.91015625 C126.68730995 90.87892021 126.37445589 103.14030631 123.5 113.875 C119.35783929 125.59181125 109.87889306 134.40008991 99.125 140.3125 C91.0623566 143.97733791 82.79265122 145.41869768 74 145 C70.88772805 145 68.05847848 145.45627049 65 146 C64.89832324 152.99246763 64.82841829 159.98474358 64.78027344 166.9777832 C64.76019637 169.35513432 64.73292887 171.7324363 64.69824219 174.10961914 C64.64955386 177.53283845 64.62699147 180.95540306 64.609375 184.37890625 C64.58872986 185.43646622 64.56808472 186.49402618 64.54681396 187.58363342 C64.54487501 194.00463355 65.2682683 197.73940332 69 203 C69.66 203.99 70.32 204.98 71 206 C70.67 206.66 70.34 207.32 70 208 C49.30670801 208.1094705 28.67133063 208.11113943 8 207 C8 202.64053682 8.33115769 202.12030391 10.9375 198.9375 C14.58520719 194.44469753 15.12860086 191.26738743 15.24609375 185.50390625 C15.27896484 184.22322266 15.31183594 182.94253906 15.34570312 181.62304688 C15.39310591 179.59111283 15.43756357 177.55920828 15.47680664 175.52709961 C15.51662278 173.56085006 15.56870782 171.59486107 15.62109375 169.62890625 C15.65867798 167.8665564 15.65867798 167.8665564 15.69702148 166.06860352 C15.98395705 163.16248495 16.48604366 161.45890133 18 159 C18.99 159 19.98 159 21 159 C20.67 158.01 20.34 157.02 20 156 C20 155.01 20 154.02 20 153 C18.68 153.33 17.36 153.66 16 154 C14.80611597 121.48571149 14.80611597 121.48571149 15 108 C17.97 108.495 17.97 108.495 21 109 C20.02289063 108.20980469 19.04578125 107.41960937 18.0390625 106.60546875 C12.88711481 100.59587151 14.26665007 91.78789283 14.375 84.3125 C14.39908484 81.90377539 14.41422734 79.49628665 14.40542603 77.08744812 C14.40086441 75.59487236 14.41544041 74.10208055 14.45175171 72.60993958 C14.44989176 69.0331839 14.26951655 67.33109527 11.97509766 64.51245117 C11.32331543 64.01334229 10.6715332 63.5142334 10 63 C4.75840374 64.95275155 1.95162027 66.9386125 -2 71 C-2.99 71 -3.98 71 -5 71 C-4.01 65.555 -4.01 65.555 -3 60 C-1.515 60.495 -1.515 60.495 0 61 C0 59.68 0 58.36 0 57 C-1.95286302 55.57826619 -1.95286302 55.57826619 -4.5 54.4375 C-12.96673817 49.6884514 -17.60004905 41.63889527 -21.50390625 32.97265625 C-22.0908023 30.63893573 -21.76174027 29.254953 -21 27 C-20.55269531 27.66386719 -20.10539062 28.32773437 -19.64453125 29.01171875 C-14.96105323 36.07827405 -14.96105323 36.07827405 -9 42 C-6.5 42.25 -6.5 42.25 -4 42 C-2.31761649 42.62594563 -0.64806323 43.28858604 1 44 C0.58427734 42.89591797 0.58427734 42.89591797 0.16015625 41.76953125 C-0.20207031 40.79371094 -0.56429688 39.81789062 -0.9375 38.8125 C-1.29714844 37.84957031 -1.65679688 36.88664062 -2.02734375 35.89453125 C-5.81217805 24.63122917 -4.82258104 12.13103911 -1 1 C-0.67 0.67 -0.34 0.34 0 0 Z M18 70 C19 72 19 72 19 72 Z M19 72 C19.33 72.99 19.66 73.98 20 75 C20 74.01 20 73.02 20 72 C19.67 72 19.34 72 19 72 Z M62 82 C61.83584081 98.68951793 62.34269989 115.324506 63 132 C68.16943954 131.73306696 68.16943954 131.73306696 71.9375 128.625 C73.18759638 126.00850621 73.18759638 126.00850621 73 123 C73.99 122.505 73.99 122.505 75 122 C77.03993594 104.15214319 77.03993594 104.15214319 72.1875 87.375 C69.92625384 84.91993274 68.02736884 83.39724716 65 82 C64.01 82 63.02 82 62 82 Z M17 204 C16.67 204.66 16.34 205.32 16 206 C16.66 206 17.32 206 18 206 C17.67 205.34 17.34 204.68 17 204 Z " fill="#FFFFFF" transform="translate(22,0)"/>
<path d="M0 0 C-0.33 1.32 -0.66 2.64 -1 4 C1.26147442 4.21092001 1.26147442 4.21092001 3.4140625 2.02734375 C7.9839759 -1.10358603 13.03019422 -0.55114815 18.375 -0.4375 C19.96344727 -0.42203125 19.96344727 -0.42203125 21.58398438 -0.40625 C30.31253142 -0.22627996 38.52786676 0.90688473 47 3 C47 3.99 47 4.98 47 6 C47.33 5.67 47.66 5.34 48 5 C50.5 4.875 50.5 4.875 53 5 C55.58458019 7.58458019 54.79992768 14.32891064 55.0625 17.8125 C55.19664307 19.56022705 55.19664307 19.56022705 55.33349609 21.34326172 C56.06743889 31.5779193 56.208331 41.74548503 56 52 C54.515 51.505 54.515 51.505 53 51 C52.5875 50.113125 52.175 49.22625 51.75 48.3125 C46.74346969 38.83585334 35.48511355 34.20836001 25.7421875 30.890625 C19.30188384 29.14466032 12.29925498 27.52093367 5.80859375 29.75390625 C3.84036604 30.8529178 3.84036604 30.8529178 3.28515625 32.953125 C3.21167969 33.71109375 3.13820313 34.4690625 3.0625 35.25 C2.92521484 36.37148437 2.92521484 36.37148437 2.78515625 37.515625 C3.08410682 40.97258067 4.14681569 43.06803897 6 46 C8.78658914 48.37531922 8.78658914 48.37531922 12 50.3125 C13.051875 50.98925781 14.10375 51.66601562 15.1875 52.36328125 C17.94101213 54.09358634 17.94101213 54.09358634 21 55 C21 55.99 21 56.98 21 58 C21.66 58 22.32 58 23 58 C23 58.66 23 59.32 23 60 C23.66 60 24.32 60 25 60 C25.495 61.98 25.495 61.98 26 64 C27.01964844 63.57847656 28.03929687 63.15695313 29.08984375 62.72265625 C33 62 33 62 36.31640625 63.74609375 C37.41961001 64.61706163 38.50125608 65.51586833 39.5625 66.4375 C40.1311377 66.90833008 40.69977539 67.37916016 41.28564453 67.86425781 C42.88623097 69.21352774 44.44890442 70.59433634 46 72 C46.63550781 72.57363281 47.27101563 73.14726563 47.92578125 73.73828125 C56.61167959 82.79877359 60.81815684 95.713876 61.05859375 107.9921875 C60.55237064 120.56611637 54.98280846 130.35243505 46.75 139.5 C45 141 45 141 43 141 C43 140.34 43 139.68 43 139 C41.35 138.67 39.7 138.34 38 138 C38 140.97 38 143.94 38 147 C13.81170987 156.02479764 -12.79375733 157.78697339 -37 148 C-37.67582558 133.32415994 -38.15760221 118.69202847 -38 104 C-35.5 105.375 -35.5 105.375 -33 107 C-33 107.66 -33 108.32 -33 109 C-32.15115234 109.37511719 -32.15115234 109.37511719 -31.28515625 109.7578125 C-28.6666804 111.18118911 -26.68157048 112.91559744 -24.4375 114.875 C-15.73967172 121.87910769 -7.08380585 124.09868629 4 123 C7.5365247 122.30236947 7.5365247 122.30236947 10 121 C11.5787095 117.84258099 11.49737365 114.43424666 11 111 C7.00491691 100.90021898 -4.20634866 95.47432728 -13.54223633 90.82666016 C-15.26171875 89.921875 -15.26171875 89.921875 -18 88 C-18.765625 85.37890625 -18.765625 85.37890625 -19 83 C-20.9568288 81.17662247 -20.9568288 81.17662247 -23 80 C-23 80.99 -23 81.98 -23 83 C-26.18382191 81.93872603 -26.78135732 81.37056374 -28.8125 78.875 C-31.10706145 76.07334785 -31.10706145 76.07334785 -33.51171875 73.3671875 C-41.29192816 64.91310169 -45.18112045 56.09790585 -45.25 44.75 C-45.270625 43.91597656 -45.29125 43.08195312 -45.3125 42.22265625 C-45.37380791 32.45937143 -41.214884 25.40352301 -35 18 C-25.59252324 9.03912627 -13.62374086 0 0 0 Z M44 7 C45 9 45 9 45 9 Z " fill="#FFFFFF" transform="translate(347,54)"/>
<path d="M0 0 C-0.33773437 0.75023437 -0.67546875 1.50046875 -1.0234375 2.2734375 C-5.3819186 12.27526984 -7.33048206 20.51625824 -6.875 31.43359375 C-7 34 -7 34 -9 37 C-8.34 37 -7.68 37 -7 37 C-6.34 44.92 -5.68 52.84 -5 61 C-1.21166042 57.35890246 -1.21166042 57.35890246 1 54.5 C3.73086474 51.08641908 6.35812058 48.42791961 10 46 C12.55692707 45.7214357 14.94086849 45.57200467 17.5 45.5625 C18.20962891 45.55863281 18.91925781 45.55476563 19.65039062 45.55078125 C26.21275701 45.69305478 31.35425794 47.65083098 37 51 C37 52.65 37 54.3 37 56 C37.5775 55.7525 38.155 55.505 38.75 55.25 C39.4925 55.1675 40.235 55.085 41 55 C43.25 56.8125 43.25 56.8125 45 59 C45 59.66 45 60.32 45 61 C45.66 61.33 46.32 61.66 47 62 C49.7031959 66.76462587 49.45734034 72.04403556 49.625 77.375 C49.68192017 78.91438232 49.68192017 78.91438232 49.73999023 80.48486328 C50.19180763 94.31805698 50.08157871 108.16174051 50 122 C49.8509288 124.0745356 49.8509288 124.0745356 51 126 C51.02594944 129.51429603 50.97245694 133.01485477 50.87304688 136.52734375 C50.80554295 141.07790241 51.10990585 144.75881312 53 149 C53.66 149.33 54.32 149.66 55 150 C54.67 151.32 54.34 152.64 54 154 C49.38 154 44.76 154 40 154 C40 153.34 40 152.68 40 152 C38.35 151.34 36.7 150.68 35 150 C35 151.32 35 152.64 35 154 C24 154 13 154 2 154 C1.67 152.68 1.34 151.36 1 150 C1.99 150 2.98 150 4 150 C6.29126601 144.46200079 6.39624652 139.2124709 6.5625 133.3125 C6.62245557 131.43346708 6.68609517 129.55454708 6.75390625 127.67578125 C6.77783447 126.84989502 6.8017627 126.02400879 6.82641602 125.1730957 C7 123 7 123 8 120 C7.34 120 6.68 120 6 120 C6.01918991 119.41562164 6.03837982 118.83124329 6.05815125 118.22915649 C6.25437752 112.16298256 6.4294332 106.09646318 6.59204102 100.02929688 C6.65558442 97.76318645 6.72457874 95.4972222 6.79907227 93.23144531 C6.90503434 89.98004517 6.99156899 86.72862815 7.07421875 83.4765625 C7.11157639 82.45881744 7.14893402 81.44107239 7.18742371 80.39248657 C7.20767105 79.45166229 7.2279184 78.51083801 7.2487793 77.54150391 C7.27320602 76.71099518 7.29763275 75.88048645 7.32279968 75.02481079 C7.21627579 74.35662323 7.10975189 73.68843567 7 73 C3.7243083 70.81620554 2.79929471 70.45724361 -1 71 C-3.64971542 72.80662415 -5.55620529 74.11241058 -7 77 C-7.1409233 78.66856097 -7.2258372 80.34204067 -7.28125 82.015625 C-7.31863281 83.01980469 -7.35601563 84.02398437 -7.39453125 85.05859375 C-7.42933594 86.11175781 -7.46414063 87.16492188 -7.5 88.25 C-7.87263899 99.36016256 -7.87263899 99.36016256 -8.65625 103.296875 C-9.20062397 106.12010963 -9.20062397 106.12010963 -8.03857422 109.21777344 C-6.98212079 113.0651116 -6.74604118 116.24088866 -6.7265625 120.21875 C-6.70628183 121.57683128 -6.68543121 122.93490415 -6.6640625 124.29296875 C-6.64148213 126.3993245 -6.62498517 128.50534511 -6.61914062 130.61181641 C-6.5813134 141.42526645 -6.5813134 141.42526645 -2 151 C-2.33 151.99 -2.66 152.98 -3 154 C-12.57 154 -22.14 154 -32 154 C-31.67 152.68 -31.34 151.36 -31 150 C-30.34 150 -29.68 150 -29 150 C-29 149.34 -29 148.68 -29 148 C-29.45246094 148.433125 -29.90492188 148.86625 -30.37109375 149.3125 C-37.9718528 155.51954708 -45.71019069 154.57594685 -55 154 C-54.20806351 150.10631224 -52.47530328 148.09412911 -50 145 C-48.9169155 141.80390668 -48.84911679 138.74397367 -48.7890625 135.38671875 C-48.76070312 134.30326172 -48.73234375 133.21980469 -48.703125 132.10351562 C-48.65131333 129.83805053 -48.60696259 127.57240172 -48.5703125 125.30664062 C-48.39297765 119.07405959 -47.84684141 114.55134075 -45 109 C-44.51917185 105.15337482 -44.85916183 103.30287632 -46.50512695 99.76318359 C-48.14474262 96.03886405 -48.3459227 92.88036633 -48.29296875 88.7890625 C-48.28872391 88.13545746 -48.28447906 87.48185242 -48.28010559 86.80844116 C-48.26348907 84.7468514 -48.22588659 82.68628734 -48.1875 80.625 C-48.17242978 79.22006639 -48.1587455 77.81511719 -48.14648438 76.41015625 C-48.1108642 72.93973328 -48.05993477 69.47006962 -48 66 C-48 65.67 -48 65.34 -48 65 C-48.33 65 -48.66 65 -49 65 C-48.98428955 63.94200195 -48.9685791 62.88400391 -48.95239258 61.79394531 C-48.89748491 57.81306784 -48.86343217 53.83222277 -48.83520508 49.85107422 C-48.8202554 48.13845158 -48.79988814 46.42586629 -48.77368164 44.71337891 C-48.57145048 31.14406475 -48.85155475 19.451869 -57 8 C-56.31599121 7.9498877 -55.63198242 7.89977539 -54.92724609 7.84814453 C-30.66398432 6.29355899 -30.66398432 6.29355899 -7.15014648 0.58862305 C-2.19595359 -1.09797679 -2.19595359 -1.09797679 0 0 Z M-19 5 C-18 7 -18 7 -18 7 Z M16 150 C15.34 150.66 14.68 151.32 14 152 C14.99 152 15.98 152 17 152 C16.67 151.34 16.34 150.68 16 150 Z " fill="#FFFFFF" transform="translate(569,53)"/>
<path d="M0 0 C2.94956528 1.36944102 5.52468811 2.87830409 8 5 C8 5.66 8 6.32 8 7 C8.7425 6.87625 9.485 6.7525 10.25 6.625 C13 7 13 7 15.1875 9.75 C15.785625 10.8225 16.38375 11.895 17 13 C17.4125 13.61875 17.825 14.2375 18.25 14.875 C19.43952122 18.24531012 19.11857253 21.44282398 19 25 C20.918125 24.9690625 20.918125 24.9690625 22.875 24.9375 C26.75 24.875 26.75 24.875 29 26 C28.505 25.01 28.505 25.01 28 24 C27.09502398 17.79445017 29.20870481 14.21965203 32.39453125 8.94140625 C32.92433594 8.30074219 33.45414063 7.66007812 34 7 C34.99 7 35.98 7 37 7 C37.33 6.01 37.66 5.02 38 4 C41.69585666 1.78248601 43.63008373 1 48 1 C53.9965504 12.65044078 53.9965504 12.65044078 53 20 C51.61802549 23.32930223 49.99743332 26.00385003 48 29 C48.73605469 29.4125 49.47210937 29.825 50.23046875 30.25 C57.15655394 34.34892492 62.17191191 38.0965563 64.61328125 45.98046875 C65.01608444 48.08399654 65.0991031 49.9857524 65.0625 52.125 C65.0309163 54.08318946 65 56.04155585 65 58 C64.98828125 59.51171875 64.9765625 61.0234375 64.96484375 62.53515625 C64.95551828 64.37760311 64.94641302 66.2200511 64.9375 68.0625 C64.92493164 69.46725586 64.92493164 69.46725586 64.91210938 70.90039062 C64.90727539 72.23553711 64.90727539 72.23553711 64.90234375 73.59765625 C64.89448853 74.82754272 64.89448853 74.82754272 64.88647461 76.08227539 C64.78752704 78.00888867 64.78752704 78.00888867 66 79 C66.10048227 81.78099472 66.13870954 84.53174928 66.125 87.3125 C66.12886719 88.08529297 66.13273438 88.85808594 66.13671875 89.65429688 C66.13542969 90.40388672 66.13414062 91.15347656 66.1328125 91.92578125 C66.13168457 92.61067627 66.13055664 93.29557129 66.12939453 94.0012207 C65.8861304 97.75896307 64.76029718 100.69944279 63 104 C62.67 104.66 62.34 105.32 62 106 C62.639375 106.20625 63.27875 106.4125 63.9375 106.625 C64.618125 107.07875 65.29875 107.5325 66 108 C66.12375 108.969375 66.2475 109.93875 66.375 110.9375 C66.58125 111.948125 66.7875 112.95875 67 114 C69.95071844 115.93469849 69.95071844 115.93469849 73 117 C73.33 116.34 73.66 115.68 74 115 C74.63421875 114.71253906 75.2684375 114.42507812 75.921875 114.12890625 C79.28741173 112.30063535 79.95645145 109.73377933 81.2421875 106.24609375 C83.35713819 97.18669156 83.44396461 84.71533901 80 76 C77.64573501 73.22877725 77.64573501 73.22877725 75 71 C73.1875 67.6875 73.1875 67.6875 72 65 C72.66 65 73.32 65 74 65 C73.67 64.34 73.34 63.68 73 63 C72.79792056 61.5461507 72.63595501 60.08651638 72.5 58.625 C72.22175328 55.6537225 71.78907653 52.88012934 71 50 C75.62272814 51.49558852 78.52369849 53.68171219 82 57 C83.13694642 60.04879488 82.89181963 62.43313286 82.5625 65.625 C82.40736171 73.8140854 86.58811682 80.90446632 90.15209961 88.06811523 C94.18836549 97.26447916 92.48221308 108.90210527 89 118 C85.77380621 123.91468862 82.17677933 128.97732075 76 132 C71.64816149 132.92359718 67.51157934 133.11730787 63.0703125 133.09765625 C61.78125 133.09443359 60.4921875 133.09121094 59.1640625 133.08789062 C57.81770764 133.07953733 56.47135348 133.07107241 55.125 133.0625 C53.75520996 133.0574783 52.38541815 133.05291657 51.015625 133.04882812 C47.6770381 133.03707254 44.33854185 133.02063964 41 133 C40.67 132.01 40.34 131.02 40 130 C39.34 130 38.68 130 38 130 C37.67 130.99 37.34 131.98 37 133 C32.05 133 27.1 133 22 133 C22.495 130.03 22.495 130.03 23 127 C21.88625 127.8971875 21.88625 127.8971875 20.75 128.8125 C19.8425 129.534375 18.935 130.25625 18 131 C17.48179687 131.52980469 16.96359375 132.05960938 16.4296875 132.60546875 C12.58146541 134.814175 8.73702975 134.531126 4.375 134.5 C3.47434814 134.49500488 2.57369629 134.49000977 1.64575195 134.48486328 C-5.23703002 134.30414741 -10.41347608 133.22853491 -16 129 C-16.67289063 128.49597656 -17.34578125 127.99195313 -18.0390625 127.47265625 C-21.07268219 125.01954403 -24.1091269 122.44806272 -26 119 C-26.25 116.3125 -26.25 116.3125 -26 114 C-25.505 113.505 -25.505 113.505 -25 113 C-25.99 113 -26.98 113 -28 113 C-30.37568315 105.87295054 -29.1648624 98.69856215 -26 92 C-22.58765465 86.26105554 -18.59204931 82.57891156 -13 79 C-12.67 80.32 -12.34 81.64 -12 83 C-10.05093145 82.40466953 -10.05093145 82.40466953 -8 81 C-7.58105469 80.0411792 -7.16210938 79.0823584 -6.73046875 78.09448242 C-4.61002202 74.30262826 -3.12192408 73.66862465 0.875 72.11328125 C2.02484375 71.64986328 3.1746875 71.18644531 4.359375 70.70898438 C5.56078125 70.24814453 6.7621875 69.78730469 8 69.3125 C10.37754961 68.37755157 12.75267677 67.43641268 15.125 66.48828125 C16.17945313 66.08134033 17.23390625 65.67439941 18.3203125 65.25512695 C20.85392301 64.06842035 22.36828049 63.25600803 24 61 C23.81782444 56.08125994 22.55286395 53.10678114 20 49 C20 47.68 20 46.36 20 45 C18.02463255 45.34786708 18.02463255 45.34786708 16 46 C15.505 46.99 15.505 46.99 15 48 C12.90742143 48.34926062 10.79861012 48.6025426 8.6875 48.8125 C-1.59558587 50.16058748 -9.89772028 53.78460614 -18.2578125 59.86328125 C-20 61 -20 61 -22 61 C-20.25740319 51.40546697 -20.25740319 51.40546697 -17 48 C-17.33 47.34 -17.66 46.68 -18 46 C-17.75146137 43.61745728 -17.42836571 41.24236637 -17.0625 38.875 C-16.86785156 37.59367187 -16.67320312 36.31234375 -16.47265625 34.9921875 C-16.31667969 34.00476563 -16.16070313 33.01734375 -16 32 C-11.35855331 30.23945126 -6.72224516 28.53472968 -2 27 C-2.639375 26.13375 -3.27875 25.2675 -3.9375 24.375 C-5.99970291 21.00048615 -6.82586415 18.91805668 -7 15 C-6.34 14.01 -5.68 13.02 -5 12 C-4.46138699 10.5134281 -3.96357403 9.01165443 -3.5 7.5 C-2.58078736 4.50256747 -1.77684809 2.66527214 0 0 Z M44 11 C41.53176154 14.34401469 41.53176154 14.34401469 41.3125 18.3125 C41.539375 18.869375 41.76625 19.42625 42 20 C43.06652192 17.69631264 44.06421005 15.35981813 45 13 C44.67 12.34 44.34 11.68 44 11 Z M5 13 C5.66 14.32 6.32 15.64 7 17 C6.67 15.68 6.34 14.36 6 13 C5.67 13 5.34 13 5 13 Z M7 17 C8 19 8 19 8 19 Z M62 58 C61.67 58.99 61.34 59.98 61 61 C61.99 61.495 61.99 61.495 63 62 C62.67 60.68 62.34 59.36 62 58 Z M13 84 C9.7920224 89.34662934 9.45275821 91.61032937 9.4375 97.5 C9.40076172 98.24636719 9.36402344 98.99273437 9.32617188 99.76171875 C9.29205416 104.04538714 9.6731946 105.59936652 12.47265625 109.03125 C16.63653479 111.73104924 16.63653479 111.73104924 25 111 C25 102.42 25 93.84 25 85 C21.04 84.67 17.08 84.34 13 84 Z " fill="#FFFFFF" transform="translate(931,74)"/>
<path d="M0 0 C1.12857422 -0.02449219 2.25714844 -0.04898438 3.41992188 -0.07421875 C15.37073058 -0.11545213 25.85433588 3.04342315 35.015625 10.9296875 C40.86246474 16.87290372 41.46628809 23.83401471 41.5 31.8125 C41.48413375 33.33339326 41.46503831 34.8542733 41.4375 36.375 C40.7775 36.375 40.1175 36.375 39.4375 36.375 C39.92089844 37.13683594 39.92089844 37.13683594 40.4140625 37.9140625 C42.22425959 42.26682649 41.79567505 46.98675931 41.8984375 51.6484375 C42.64831232 56.83235475 45.30504625 61.10347412 49.4375 64.375 C51.54082891 65.08947643 51.54082891 65.08947643 53.4375 65.375 C53.4375 66.035 53.4375 66.695 53.4375 67.375 C54.72983607 68.74810707 56.06187146 70.08534824 57.4375 71.375 C54.1375 71.045 50.8375 70.715 47.4375 70.375 C48.38625 71.4475 49.335 72.52 50.3125 73.625 C53.30357125 77.00621098 55.01069923 80.09459769 56.4375 84.375 C53.50870629 83.74740135 51.07654371 82.78877341 48.4375 81.375 C49.035625 82.261875 49.63375 83.14875 50.25 84.0625 C52.89154746 88.06255758 55.35715164 92.05427648 57.4375 96.375 C53.40420601 95.00911498 50.80457479 93.19422519 47.6875 90.3125 C46.90890625 89.59964844 46.1303125 88.88679688 45.328125 88.15234375 C44.35455841 87.23711069 43.38235011 86.31985011 42.4375 85.375 C42.55147544 87.81347451 42.67820974 90.25013174 42.8125 92.6875 C42.8434375 93.37779297 42.874375 94.06808594 42.90625 94.77929688 C43.11874919 98.44490789 43.35683861 100.25400792 45.4375 103.375 C46.9225 104.365 46.9225 104.365 48.4375 105.375 C47.9425 107.355 47.9425 107.355 47.4375 109.375 C39.75612693 109.51872632 32.18255634 109.15331884 24.52734375 108.59375 C22.83340282 108.47382498 21.13568076 108.375 19.4375 108.375 C12.77083333 108.375 6.10416667 108.375 -0.5625 108.375 C-1.5625 105.375 -1.5625 105.375 -1.5625 102.375 C-2.67625 103.550625 -2.67625 103.550625 -3.8125 104.75 C-9.20562871 109.89798649 -13.70464908 109.76808626 -20.875 109.8125 C-21.79990234 109.84537109 -22.72480469 109.87824219 -23.67773438 109.91210938 C-30.25114646 109.96350066 -33.7255182 108.91842704 -38.5625 104.375 C-38.5625 103.385 -38.5625 102.395 -38.5625 101.375 C-40.5425 101.87 -40.5425 101.87 -42.5625 102.375 C-50.01016368 94.51924516 -53.82633251 87.42492637 -53.5625 76.375 C-52.53634368 70.87955128 -50.56467156 66.37717156 -46.5625 62.375 C-45.9025 62.375 -45.2425 62.375 -44.5625 62.375 C-44.2325 64.025 -43.9025 65.675 -43.5625 67.375 C-42.9025 67.375 -42.2425 67.375 -41.5625 67.375 C-41.66433594 66.67375 -41.76617187 65.9725 -41.87109375 65.25 C-42.02358274 61.84903342 -41.79008567 59.56672274 -40.5625 56.375 C-36.09097509 52.64651781 -30.9127795 50.57892055 -25.5625 48.375 C-24.62760742 47.98505859 -23.69271484 47.59511719 -22.72949219 47.19335938 C-18.76480934 45.54734852 -14.79825696 43.91131607 -10.80200195 42.34326172 C-9.891521 41.98506348 -8.98104004 41.62686523 -8.04296875 41.2578125 C-7.22723389 40.94215332 -6.41149902 40.62649414 -5.57104492 40.30126953 C-3.39509057 39.4382537 -3.39509057 39.4382537 -1.5625 37.375 C-1.02405977 33.29823829 -1.18573765 31.0560704 -3.1875 27.4375 C-9.16962661 23.78175596 -15.96704179 24.39346658 -22.66113281 25.82324219 C-28.84219143 27.40325579 -34.83898101 29.27199284 -40.34765625 32.546875 C-43.5625 34.375 -43.5625 34.375 -46.5625 34.375 C-44.5625 28.375 -44.5625 28.375 -43.59375 25.6875 C-42.39086058 21.82367338 -41.64266176 17.97912707 -40.9375 14 C-40.8034375 13.26394531 -40.669375 12.52789062 -40.53125 11.76953125 C-40.20443673 9.97205828 -39.88291989 8.17362367 -39.5625 6.375 C-37.67091796 5.73724894 -35.77386534 5.11572675 -33.875 4.5 C-32.81925781 4.15195313 -31.76351562 3.80390625 -30.67578125 3.4453125 C-20.64652587 0.60070797 -10.36892598 0.01188416 0 0 Z M-37.5625 18.375 C-38.2225 19.695 -38.8825 21.015 -39.5625 22.375 C-38.5725 22.045 -37.5825 21.715 -36.5625 21.375 C-36.2325 20.385 -35.9025 19.395 -35.5625 18.375 C-36.2225 18.375 -36.8825 18.375 -37.5625 18.375 Z M-10.5625 60.375 C-13.8149055 66.60877721 -14.85550474 72.59000286 -12.98828125 79.5 C-11.6471755 82.90598286 -10.65323606 84.31450929 -7.5625 86.375 C-5.2525 86.375 -2.9425 86.375 -0.5625 86.375 C-0.5625 77.795 -0.5625 69.215 -0.5625 60.375 C-3.8625 60.375 -7.1625 60.375 -10.5625 60.375 Z " fill="#FFFFFF" transform="translate(189.5625,98.625)"/>
<path d="M0 0 C1.8125 0.0625 1.8125 0.0625 4 1 C7.087486 6.00385662 7.38822871 9.96870914 6.578125 15.75390625 C5.7827741 18.84395196 4.69757383 20.30438217 2 22 C0.68 22 -0.64 22 -2 22 C0.31 25.3 2.62 28.6 5 32 C4.34 33.32 3.68 34.64 3 36 C3 36.99 3 37.98 3 39 C3.825 39.639375 4.65 40.27875 5.5 40.9375 C8.91563335 45.12165085 8.43973747 48.2082798 8.2734375 53.453125 C8 56 8 56 7 57 C7.66 57.33 8.32 57.66 9 58 C8.67 62.29 8.34 66.58 8 71 C5.75059705 71.08119503 3.50035129 71.13927819 1.25 71.1875 C-0.00296875 71.22230469 -1.2559375 71.25710937 -2.546875 71.29296875 C-6.28679587 70.97566777 -7.18542827 70.25882827 -10 68 C-12.33685728 67.77678384 -12.33685728 67.77678384 -14.6875 68.1875 C-15.47511719 68.28417969 -16.26273438 68.38085938 -17.07421875 68.48046875 C-18.02748047 68.73763672 -18.02748047 68.73763672 -19 69 C-19.33 69.66 -19.66 70.32 -20 71 C-22.31665039 71.41064453 -22.31665039 71.41064453 -25.34765625 71.6328125 C-26.42724609 71.71660156 -27.50683594 71.80039063 -28.61914062 71.88671875 C-29.75544922 71.96535156 -30.89175781 72.04398437 -32.0625 72.125 C-33.20267578 72.21136719 -34.34285156 72.29773438 -35.51757812 72.38671875 C-38.34453333 72.59962751 -41.17185426 72.80364922 -44 73 C-43.55014598 74.43284738 -43.09298516 75.8634019 -42.6328125 77.29296875 C-42.37902832 78.08985107 -42.12524414 78.8867334 -41.86376953 79.70776367 C-40.21153711 84.09239063 -37.80894808 87.02408011 -33.67578125 89.25390625 C-31.47208682 90.24677956 -29.26610201 91.16070296 -27 92 C-27 92.99 -27 93.98 -27 95 C-26.01 95.495 -26.01 95.495 -25 96 C-25 95.34 -25 94.68 -25 94 C-21.52987416 91.92815582 -18.42681748 91.59311775 -14.4375 91.1875 C-8.36229777 90.41463798 -3.67627983 88.82382879 1.6953125 85.92578125 C4.31439205 84.87371031 5.4050533 85.01344192 8 86 C7.11954345 87.61265753 6.21989504 89.21484475 5.3125 90.8125 C4.56419922 92.15248047 4.56419922 92.15248047 3.80078125 93.51953125 C1.01194577 97.36098576 -2.37437465 99.14340271 -7 100 C-5.35 100.33 -3.7 100.66 -2 101 C-2.21269531 101.84884766 -2.21269531 101.84884766 -2.4296875 102.71484375 C-2.80511766 104.21913584 -3.144797 105.73287603 -3.4453125 107.25390625 C-4.26496524 110.03789918 -5.10621355 111.78288415 -7 114 C-21.73196535 120.59332715 -43.37274836 118.71653905 -58.11328125 113.2890625 C-61 112 -61 112 -63 110 C-63.125 106.875 -63.125 106.875 -63 104 C-63.66 104 -64.32 104 -65 104 C-64.67 105.65 -64.34 107.3 -64 109 C-72.24812963 106.18780818 -77.49937682 99.54806944 -81.4375 92 C-83.70265286 87.0316813 -85.31669732 82.41452505 -86 77 C-86.19916016 75.48019531 -86.19916016 75.48019531 -86.40234375 73.9296875 C-87.59986594 62.1159293 -86.50707842 50.34991201 -83 39 C-82.34 39 -81.68 39 -81 39 C-80.9175 38.29875 -80.835 37.5975 -80.75 36.875 C-78.74490757 29.18881236 -72.2522235 22.61013671 -66 18 C-63.65662891 16.70349572 -61.34037367 15.48208538 -58.9375 14.3125 C-58.02000977 13.85133789 -58.02000977 13.85133789 -57.08398438 13.38085938 C-45.08400065 7.45221877 -28.66590405 8.47132639 -16.046875 12.24609375 C-14 13 -14 13 -12 14 C-11.76410156 13.401875 -11.52820313 12.80375 -11.28515625 12.1875 C-9.30964089 8.82492066 -6.29310966 7.50378297 -2.99609375 5.5625 C-0.71591287 3.7776226 -0.34655044 2.82104221 0 0 Z M-42 29 C-44.4420792 35.83782175 -44.62022758 42.79431807 -45 50 C-42.79245484 50.19656224 -40.58390461 50.38185459 -38.375 50.5625 C-37.14523437 50.66691406 -35.91546875 50.77132812 -34.6484375 50.87890625 C-31.24372538 50.99191061 -28.32441602 50.69045563 -25 50 C-24.43292575 39.81751215 -24.43292575 39.81751215 -27.625 30.5 C-30.877399 28.44585326 -33.22677712 28.65062751 -37 29 C-37.99 29.495 -37.99 29.495 -39 30 C-39 30.66 -39 31.32 -39 32 C-39.66 32 -40.32 32 -41 32 C-41.33 31.01 -41.66 30.02 -42 29 Z M-33 51 C-32 53 -32 53 -32 53 Z " fill="#FFFFFF" transform="translate(717,91)"/>
<path d="M0 0 C-0.53053372 2.43540241 -0.89899028 3.86824819 -2.4375 5.875 C-5.6152647 10.19676 -6.25060197 14.79549374 -6.31884766 20.04956055 C-6.33871735 21.22064865 -6.35858704 22.39173676 -6.37905884 23.59831238 C-6.39638565 25.47357353 -6.39638565 25.47357353 -6.4140625 27.38671875 C-6.43342865 28.68068069 -6.4527948 29.97464264 -6.4727478 31.30781555 C-6.5238941 34.7342323 -6.56359991 38.16068849 -6.60089111 41.58728027 C-6.64095228 45.07716577 -6.69209486 48.5668873 -6.7421875 52.05664062 C-6.92724129 64.02786341 -6.92724129 64.02786341 -7 76 C-7.00995782 77.97363605 -7.02064922 79.94726842 -7.03173828 81.92089844 C-7.06390425 87.99228802 -7.08695815 94.06364961 -7.10362434 100.1350975 C-7.11405356 103.80593424 -7.12820967 107.47667778 -7.15087891 111.14746094 C-7.17269789 114.70411336 -7.18458638 118.26067624 -7.18975449 121.81739044 C-7.19521065 123.82195503 -7.21080547 125.82648381 -7.22659302 127.83099365 C-7.46264525 138.93874722 -7.46264525 138.93874722 -2.375 148.4375 C-1.59125 149.283125 -0.8075 150.12875 0 151 C-5.74092928 153.47262081 -11.17495719 153.2561039 -17.3046875 153.1953125 C-18.38380402 153.1924826 -19.46292053 153.18965271 -20.57473755 153.18673706 C-24.00827299 153.1755766 -27.44154391 153.1504793 -30.875 153.125 C-33.20832956 153.11496487 -35.54166322 153.10583995 -37.875 153.09765625 C-43.583423 153.07565079 -49.29169259 153.04221427 -55 153 C-55 148.22770731 -53.98436676 147.51101972 -51 144 C-48.31207315 140.12056368 -48.73334126 135.86223895 -48.77294922 131.33178711 C-48.77251114 130.02140724 -48.77251114 130.02140724 -48.77206421 128.68455505 C-48.77345674 125.79871667 -48.78901775 122.91313702 -48.8046875 120.02734375 C-48.80841885 118.02242677 -48.81126524 116.01750796 -48.81326294 114.0125885 C-48.82089763 108.73488326 -48.84053983 103.45728818 -48.8626709 98.17962646 C-48.88310329 92.80661502 -48.89226691 87.43358596 -48.90234375 82.06054688 C-48.92149591 72.62385609 -48.95044555 63.1872353 -48.98654175 53.75059509 C-48.99461609 51.50040674 -49 49.25020284 -49 47 C-49.33 46.34 -49.66 45.68 -50 45 C-50.06202318 42.68440631 -50.05971275 40.36697926 -50.02734375 38.05078125 C-50.01468632 36.63086191 -50.0023262 35.21093989 -49.99023438 33.79101562 C-49.96552662 31.55728782 -49.93766856 29.32370005 -49.90405273 27.09008789 C-49.87359102 24.93114398 -49.85598845 22.77237341 -49.83984375 20.61328125 C-49.82300537 19.32204346 -49.80616699 18.03080566 -49.78881836 16.70043945 C-50.15029298 10.36648477 -51.26533805 6.26119575 -56 2 C-56 1.34 -56 0.68 -56 0 C-37.27646598 -0.72723961 -18.71567446 -1.31373525 0 0 Z M-20 0 C-19 2 -19 2 -19 2 Z M-46 43 C-45 45 -45 45 -45 45 Z M-47 45 C-46 47 -46 47 -46 47 Z M-12 78 C-12.33 78.66 -12.66 79.32 -13 80 C-12.34 80 -11.68 80 -11 80 C-11.33 79.34 -11.66 78.68 -12 78 Z M-10 120 C-9 122 -9 122 -9 122 Z M-46 137 C-45.67 137.66 -45.34 138.32 -45 139 C-44.67 138.34 -44.34 137.68 -44 137 C-44.66 137 -45.32 137 -46 137 Z M-17 148 C-17.66 148.66 -18.32 149.32 -19 150 C-18.01 150.33 -17.02 150.66 -16 151 C-15.67 150.01 -15.34 149.02 -15 148 C-15.66 148 -16.32 148 -17 148 Z " fill="#FFFFFF" transform="translate(297,55)"/>
<path d="M0 0 C0.43237305 1.87939453 0.43237305 1.87939453 0.51171875 4.1328125 C0.54716797 4.93847656 0.58261719 5.74414062 0.61914062 6.57421875 C0.64169922 7.41597656 0.66425781 8.25773437 0.6875 9.125 C0.72166016 9.97449219 0.75582031 10.82398437 0.79101562 11.69921875 C0.87359173 13.79901105 0.93846978 15.89948564 1 18 C0.34 17.67 -0.32 17.34 -1 17 C-0.67 17.495 -0.34 17.99 0 18.5 C1.43636358 22.09090894 1.12851462 25.14456127 1 29 C-0.485 29.495 -0.485 29.495 -2 30 C-6 25.25 -6 25.25 -6 23 C-6.57878906 22.7215625 -7.15757812 22.443125 -7.75390625 22.15625 C-9.91065887 21.04599126 -11.90436496 19.82053127 -13.9375 18.5 C-20.02348534 14.70744664 -24.78101694 13.14707221 -32 14 C-34.46108397 14.81878371 -36.65246227 15.87318189 -39 17 C-39.99 17 -40.98 17 -42 17 C-42.28875 17.5878125 -42.5775 18.175625 -42.875 18.78125 C-43.54947576 20.11146608 -44.24996456 21.42962658 -45 22.71875 C-51.05205606 33.49897486 -51.55706652 47.33997093 -48.4375 59.125 C-48 61 -48 61 -48 64 C-47.01 64 -46.02 64 -45 64 C-44.74605469 64.54269531 -44.49210937 65.08539063 -44.23046875 65.64453125 C-43.71419922 66.71767578 -43.71419922 66.71767578 -43.1875 67.8125 C-42.85105469 68.52019531 -42.51460938 69.22789062 -42.16796875 69.95703125 C-40.12125345 73.53707173 -37.7332972 75.33539829 -34.0625 77.125 C-33.39347656 77.45757812 -32.72445312 77.79015625 -32.03515625 78.1328125 C-22.4949003 82.19795035 -8.33302215 81.27309926 1.1875 77.75390625 C1.785625 77.50511719 2.38375 77.25632812 3 77 C3.99 76.67 4.98 76.34 6 76 C5.39689282 79.668902 3.82898926 81.77103366 1.5 84.625 C-0.99731843 87.65363484 -0.99731843 87.65363484 -3 91 C-3.99 91.495 -3.99 91.495 -5 92 C-5.309375 93.11375 -5.61875 94.2275 -5.9375 95.375 C-7.38694992 100.32018209 -7.38694992 100.32018209 -10 102 C-30.87234809 106.23289284 -52.54684836 103.48474525 -71 93 C-71 92.34 -71 91.68 -71 91 C-72.65591819 89.98230028 -74.32457867 88.98526197 -76 88 C-86.16903722 79.10209244 -89.71662741 66.98368718 -90.84765625 53.921875 C-91.33968172 41.25537307 -88.10014859 27.90018161 -80 18 C-76.83884224 19.36983503 -76.0072908 19.9890638 -74 23 C-74.66 19.7 -75.32 16.4 -76 13 C-58.1871319 -2.2735869 -22.12071617 -14.74714412 0 0 Z " fill="#FFFFFF" transform="translate(507,105)"/>
<path d="M0 0 C0 0.99 0 1.98 0 3 C-0.92232422 3.20302734 -0.92232422 3.20302734 -1.86328125 3.41015625 C-7.37567867 4.86802545 -7.37567867 4.86802545 -11 9.125 C-12.33040689 13.29479879 -12.71391444 17.64952646 -13 22 C-12.34 22.33 -11.68 22.66 -11 23 C-9.93708501 31.53706324 -9.93708501 31.53706324 -12.453125 35 C-17.03004808 39 -17.03004808 39 -21 39 C-22.67099977 38.68911632 -24.33871537 38.35919668 -26 38 C-26.66 35.36 -27.32 32.72 -28 30 C-28.33 31.98 -28.66 33.96 -29 36 C-32.21020798 35.77069943 -33.05574452 34.93806165 -35.25 32.5 C-37.47253317 28.05493367 -37.41942554 24.85834588 -37 20 C-36.938125 18.9275 -36.87625 17.855 -36.8125 16.75 C-35.73075262 13.08870117 -33.80382503 11.5430041 -31 9 C-30.443125 8.175 -29.88625 7.35 -29.3125 6.5 C-21.92417421 -1.48737923 -9.7181841 -5.20617005 0 0 Z M-25 6 C-24 8 -24 8 -24 8 Z " fill="#FFFFFF" transform="translate(561,17)"/>
<path d="M0 0 C1.14926266 0.95421808 2.29430541 1.91352045 3.4375 2.875 C4.07558594 3.40867188 4.71367187 3.94234375 5.37109375 4.4921875 C7 6 7 6 8 8 C4.63820226 6.55922954 2.40843732 4.75249979 0 2 C0 1.34 0 0.68 0 0 Z " fill="#FFFFFF" transform="translate(140,195)"/>
<path d="M0 0 C0.66 0 1.32 0 2 0 C1.39816251 2.02045442 0.72693904 4.02111039 0 6 C-0.99 6.495 -0.99 6.495 -2 7 C-1.125 2.25 -1.125 2.25 0 0 Z " fill="#FFFFFF" transform="translate(522,160)"/>
<path d="M0 0 C0.66 0.33 1.32 0.66 2 1 C2.625 3.5625 2.625 3.5625 3 6 C1.68 5.01 0.36 4.02 -1 3 C-0.67 2.01 -0.34 1.02 0 0 Z " fill="#FFFFFF" transform="translate(777,175)"/>
<path d="M0 0 C0.99 0 1.98 0 3 0 C3 0.99 3 1.98 3 3 C2.01 3 1.02 3 0 3 C0 2.01 0 1.02 0 0 Z " fill="#FFFFFF" transform="translate(386,195)"/>
<path d="M0 0 C0.66 0.33 1.32 0.66 2 1 C1.01 2.485 1.01 2.485 0 4 C-0.66 4 -1.32 4 -2 4 C-1.34 2.68 -0.68 1.36 0 0 Z " fill="#FFFFFF" transform="translate(39,156)"/>
<path d="M0 0 C0.99 0.33 1.98 0.66 3 1 C1.02 1.99 1.02 1.99 -1 3 C-0.67 2.01 -0.34 1.02 0 0 Z " fill="#FFFFFF" transform="translate(349,54)"/>
<path d="M0 0 C1.32 1.32 2.64 2.64 4 4 C2.68 3.34 1.36 2.68 0 2 C0 1.34 0 0.68 0 0 Z " fill="#FFFFFF" transform="translate(678,174)"/>
<path d="M0 0 C0.33 0.99 0.66 1.98 1 3 C0.01 2.67 -0.98 2.34 -2 2 C-1.34 1.34 -0.68 0.68 0 0 Z " fill="#FFFFFF" transform="translate(699,160)"/>
<path d="M0 0 C1.98 0.99 1.98 0.99 4 2 C3.01 2 2.02 2 1 2 C0.67 1.34 0.34 0.68 0 0 Z " fill="#FFFFFF" transform="translate(348,155)"/>
<path d="M0 0 C1.485 0.99 1.485 0.99 3 2 C2.67 2.66 2.34 3.32 2 4 C1.34 2.68 0.68 1.36 0 0 Z " fill="#FFFFFF" transform="translate(241,58)"/>
<path d="M0 0 C0.66 0 1.32 0 2 0 C1.67 0.99 1.34 1.98 1 3 C0.67 2.01 0.34 1.02 0 0 Z " fill="#FFFFFF" transform="translate(810,204)"/>
<path d="M0 0 C0.33 1.32 0.66 2.64 1 4 C0.34 3.01 -0.32 2.02 -1 1 C-0.67 0.67 -0.34 0.34 0 0 Z " fill="#FFFFFF" transform="translate(561,156)"/>
<path d="M0 0 C0.99 0.33 1.98 0.66 3 1 C2.01 1.33 1.02 1.66 0 2 C0 1.34 0 0.68 0 0 Z " fill="#FFFFFF" transform="translate(921,151)"/>
<path d="M0 0 C0 0.99 0 1.98 0 3 C-0.66 2.67 -1.32 2.34 -2 2 C-1.34 1.34 -0.68 0.68 0 0 Z " fill="#FFFFFF" transform="translate(186,135)"/>
<path d="M0 0 C0.66 1.32 1.32 2.64 2 4 C1.34 3.67 0.68 3.34 0 3 C0 2.01 0 1.02 0 0 Z " fill="#FFFFFF" transform="translate(429,119)"/>
<path d="M0 0 C0.66 0.33 1.32 0.66 2 1 C1.01 1 0.02 1 -1 1 C-0.67 0.67 -0.34 0.34 0 0 Z " fill="#FFFFFF" transform="translate(535,204)"/>
<path d="M0 0 C0.99 0.495 0.99 0.495 2 1 C1.67 1.66 1.34 2.32 1 3 C0.67 2.01 0.34 1.02 0 0 Z " fill="#FFFFFF" transform="translate(466,175)"/>
<path d="M0 0 C0 3 0 3 0 3 Z " fill="#FFFFFF" transform="translate(849,158)"/>
<path d="M0 0 C0.99 0.33 1.98 0.66 3 1 C2.01 1 1.02 1 0 1 C0 0.67 0 0.34 0 0 Z " fill="#FFFFFF" transform="translate(345,153)"/>
<path d="M0 0 C0.99 0.495 0.99 0.495 2 1 C1.67 1.66 1.34 2.32 1 3 C0.67 2.01 0.34 1.02 0 0 Z " fill="#FFFFFF" transform="translate(307,121)"/>
<path d="M0 0 C0 3 0 3 0 3 Z " fill="#FFFFFF" transform="translate(842,104)"/>
<path d="M0 0 C0.99 0.33 1.98 0.66 3 1 C2.01 1 1.02 1 0 1 C0 0.67 0 0.34 0 0 Z " fill="#FFFFFF" transform="translate(388,93)"/>
<path d="M0 0 C0 3 0 3 0 3 Z " fill="#FFFFFF" transform="translate(964,79)"/>
<path d="M0 0 C0.66 0.66 1.32 1.32 2 2 C1.34 2 0.68 2 0 2 C0 1.34 0 0.68 0 0 Z " fill="#FFFFFF" transform="translate(945,181)"/>
<path d="M0 0 C0.66 0.66 1.32 1.32 2 2 C1.34 2 0.68 2 0 2 C0 1.34 0 0.68 0 0 Z " fill="#FFFFFF" transform="translate(180,181)"/>
<path d="M0 0 C0.99 0.495 0.99 0.495 2 1 C1.01 1.495 1.01 1.495 0 2 C0 1.34 0 0.68 0 0 Z " fill="#FFFFFF" transform="translate(179,160)"/>
<path d="M0 0 C0.33 0.66 0.66 1.32 1 2 C0.34 1.67 -0.32 1.34 -1 1 C-0.67 0.67 -0.34 0.34 0 0 Z " fill="#FFFFFF" transform="translate(147,157)"/>
<path d="M0 0 C0.33 0.66 0.66 1.32 1 2 C0.34 1.67 -0.32 1.34 -1 1 C-0.67 0.67 -0.34 0.34 0 0 Z " fill="#FFFFFF" transform="translate(722,125)"/>
<path d="M0 0 C0.66 0.66 1.32 1.32 2 2 C1.34 2 0.68 2 0 2 C0 1.34 0 0.68 0 0 Z " fill="#FFFFFF" transform="translate(493,124)"/>
<path d="M0 0 C0.66 0 1.32 0 2 0 C1.67 0.66 1.34 1.32 1 2 C0.67 1.34 0.34 0.68 0 0 Z " fill="#FFFFFF" transform="translate(391,123)"/>
<path d="M0 0 C0.66 0.66 1.32 1.32 2 2 C1.34 2 0.68 2 0 2 C0 1.34 0 0.68 0 0 Z " fill="#FFFFFF" transform="translate(980,102)"/>
<path d="" fill="#FFFFFF" transform="translate(0,0)"/>
<path d="" fill="#FFFFFF" transform="translate(0,0)"/>
<path d="" fill="#FFFFFF" transform="translate(0,0)"/>
<path d="" fill="#FFFFFF" transform="translate(0,0)"/>
<path d="" fill="#FFFFFF" transform="translate(0,0)"/>
<path d="M0 0 C2 1 2 1 2 1 Z " fill="#FFFFFF" transform="translate(431,195)"/>
<path d="" fill="#FFFFFF" transform="translate(0,0)"/>
<path d="M0 0 C2 1 2 1 2 1 Z " fill="#FFFFFF" transform="translate(386,193)"/>
<path d="M0 0 C2 1 2 1 2 1 Z " fill="#FFFFFF" transform="translate(947,183)"/>
<path d="M0 0 C2 1 2 1 2 1 Z " fill="#FFFFFF" transform="translate(692,183)"/>
<path d="" fill="#FFFFFF" transform="translate(0,0)"/>
<path d="M0 0 C2 1 2 1 2 1 Z " fill="#FFFFFF" transform="translate(471,180)"/>
<path d="" fill="#FFFFFF" transform="translate(0,0)"/>
<path d="M0 0 C2 1 2 1 2 1 Z " fill="#FFFFFF" transform="translate(352,175)"/>
<path d="" fill="#FFFFFF" transform="translate(0,0)"/>
<path d="M0 0 C2 1 2 1 2 1 Z " fill="#FFFFFF" transform="translate(704,159)"/>
<path d="" fill="#FFFFFF" transform="translate(0,0)"/>
<path d="" fill="#FFFFFF" transform="translate(0,0)"/>
<path d="" fill="#FFFFFF" transform="translate(0,0)"/>
<path d="" fill="#FFFFFF" transform="translate(0,0)"/>
<path d="" fill="#FFFFFF" transform="translate(0,0)"/>
<path d="" fill="#FFFFFF" transform="translate(0,0)"/>
<path d="M0 0 C2 1 2 1 2 1 Z " fill="#FFFFFF" transform="translate(938,142)"/>
<path d="M0 0 C2 1 2 1 2 1 Z " fill="#FFFFFF" transform="translate(940,141)"/>
<path d="M0 0 C2 1 2 1 2 1 Z " fill="#FFFFFF" transform="translate(945,139)"/>
<path d="" fill="#FFFFFF" transform="translate(0,0)"/>
<path d="M0 0 C2 1 2 1 2 1 Z " fill="#FFFFFF" transform="translate(179,139)"/>
<path d="M0 0 C2 1 2 1 2 1 Z " fill="#FFFFFF" transform="translate(915,132)"/>
<path d="M0 0 C2 1 2 1 2 1 Z " fill="#FFFFFF" transform="translate(147,132)"/>
<path d="M0 0 C2 1 2 1 2 1 Z " fill="#FFFFFF" transform="translate(567,125)"/>
<path d="" fill="#FFFFFF" transform="translate(0,0)"/>
<path d="" fill="#FFFFFF" transform="translate(0,0)"/>
<path d="M0 0 C2 1 2 1 2 1 Z " fill="#FFFFFF" transform="translate(490,123)"/>
<path d="M0 0 C2 1 2 1 2 1 Z " fill="#FFFFFF" transform="translate(467,123)"/>
<path d="M0 0 C2 1 2 1 2 1 Z " fill="#FFFFFF" transform="translate(488,122)"/>
<path d="M0 0 C2 1 2 1 2 1 Z " fill="#FFFFFF" transform="translate(425,122)"/>
<path d="M0 0 C2 1 2 1 2 1 Z " fill="#FFFFFF" transform="translate(473,120)"/>
<path d="" fill="#FFFFFF" transform="translate(0,0)"/>
<path d="M0 0 C2 1 2 1 2 1 Z " fill="#FFFFFF" transform="translate(386,119)"/>
<path d="" fill="#FFFFFF" transform="translate(0,0)"/>
<path d="" fill="#FFFFFF" transform="translate(0,0)"/>
<path d="" fill="#FFFFFF" transform="translate(0,0)"/>
<path d="M0 0 C2 1 2 1 2 1 Z " fill="#FFFFFF" transform="translate(984,105)"/>
<path d="M0 0 C2 1 2 1 2 1 Z " fill="#FFFFFF" transform="translate(362,105)"/>
<path d="M0 0 C2 1 2 1 2 1 Z " fill="#FFFFFF" transform="translate(220,105)"/>
<path d="M0 0 C2 1 2 1 2 1 Z " fill="#FFFFFF" transform="translate(878,104)"/>
<path d="M0 0 C2 1 2 1 2 1 Z " fill="#FFFFFF" transform="translate(656,104)"/>
<path d="M0 0 C2 1 2 1 2 1 Z " fill="#FFFFFF" transform="translate(449,104)"/>
<path d="" fill="#FFFFFF" transform="translate(0,0)"/>
<path d="M0 0 C2 1 2 1 2 1 Z " fill="#FFFFFF" transform="translate(506,103)"/>
<path d="M0 0 C2 1 2 1 2 1 Z " fill="#FFFFFF" transform="translate(451,103)"/>
<path d="M0 0 C2 1 2 1 2 1 Z " fill="#FFFFFF" transform="translate(150,103)"/>
<path d="M0 0 C2 1 2 1 2 1 Z " fill="#FFFFFF" transform="translate(875,102)"/>
<path d="M0 0 C2 1 2 1 2 1 Z " fill="#FFFFFF" transform="translate(661,102)"/>
<path d="M0 0 C2 1 2 1 2 1 Z " fill="#FFFFFF" transform="translate(454,102)"/>
<path d="M0 0 C2 1 2 1 2 1 Z " fill="#FFFFFF" transform="translate(392,96)"/>
<path d="" fill="#FFFFFF" transform="translate(0,0)"/>
<path d="" fill="#FFFFFF" transform="translate(0,0)"/>
<path d="" fill="#FFFFFF" transform="translate(0,0)"/>
<path d="" fill="#FFFFFF" transform="translate(0,0)"/>
<path d="M0 0 C2 1 2 1 2 1 Z " fill="#FFFFFF" transform="translate(940,79)"/>
<path d="" fill="#FFFFFF" transform="translate(0,0)"/>
<path d="" fill="#FFFFFF" transform="translate(0,0)"/>
<path d="" fill="#FFFFFF" transform="translate(0,0)"/>
<path d="M0 0 C2 1 2 1 2 1 Z " fill="#FFFFFF" transform="translate(968,76)"/>
<path d="" fill="#FFFFFF" transform="translate(0,0)"/>
<path d="" fill="#FFFFFF" transform="translate(0,0)"/>
<path d="M0 0 C2 1 2 1 2 1 Z " fill="#FFFFFF" transform="translate(532,53)"/>
<path d="" fill="#FFFFFF" transform="translate(0,0)"/>
<path d="M0 0 C2 1 2 1 2 1 Z " fill="#FFFFFF" transform="translate(18,41)"/>
<path d="" fill="#FFFFFF" transform="translate(0,0)"/>
<path d="" fill="#FFFFFF" transform="translate(0,0)"/>
<path d="" fill="#FFFFFF" transform="translate(0,0)"/>
<path d="" fill="#FFFFFF" transform="translate(0,0)"/>
<path d="" fill="#FFFFFF" transform="translate(0,0)"/>
<path d="" fill="#FFFFFF" transform="translate(0,0)"/>
<path d="" fill="#FFFFFF" transform="translate(0,0)"/>
<path d="" fill="#FFFFFF" transform="translate(0,0)"/>
<path d="" fill="#FFFFFF" transform="translate(0,0)"/>
<path d="" fill="#FFFFFF" transform="translate(0,0)"/>
<path d="" fill="#FFFFFF" transform="translate(0,0)"/>
<path d="" fill="#FFFFFF" transform="translate(0,0)"/>
<path d="" fill="#FFFFFF" transform="translate(0,0)"/>
<path d="" fill="#FFFFFF" transform="translate(0,0)"/>
<path d="" fill="#FFFFFF" transform="translate(0,0)"/>
<path d="" fill="#FFFFFF" transform="translate(0,0)"/>
<path d="" fill="#FFFFFF" transform="translate(0,0)"/>
<path d="" fill="#FFFFFF" transform="translate(0,0)"/>
<path d="" fill="#FFFFFF" transform="translate(0,0)"/>
<path d="" fill="#FFFFFF" transform="translate(0,0)"/>
<path d="" fill="#FFFFFF" transform="translate(0,0)"/>
<path d="" fill="#FFFFFF" transform="translate(0,0)"/>
<path d="" fill="#FFFFFF" transform="translate(0,0)"/>
<path d="" fill="#FFFFFF" transform="translate(0,0)"/>
<path d="" fill="#FFFFFF" transform="translate(0,0)"/>
<path d="" fill="#FFFFFF" transform="translate(0,0)"/>
<path d="" fill="#FFFFFF" transform="translate(0,0)"/>
<path d="" fill="#FFFFFF" transform="translate(0,0)"/>
<path d="" fill="#FFFFFF" transform="translate(0,0)"/>
<path d="" fill="#FFFFFF" transform="translate(0,0)"/>
<path d="" fill="#FFFFFF" transform="translate(0,0)"/>
<path d="" fill="#FFFFFF" transform="translate(0,0)"/>
<path d="" fill="#FFFFFF" transform="translate(0,0)"/>
<path d="" fill="#FFFFFF" transform="translate(0,0)"/>
<path d="" fill="#FFFFFF" transform="translate(0,0)"/>
<path d="" fill="#FFFFFF" transform="translate(0,0)"/>
<path d="" fill="#FFFFFF" transform="translate(0,0)"/>
<path d="" fill="#FFFFFF" transform="translate(0,0)"/>
<path d="" fill="#FFFFFF" transform="translate(0,0)"/>
<path d="" fill="#FFFFFF" transform="translate(0,0)"/>
<path d="" fill="#FFFFFF" transform="translate(0,0)"/>
<path d="" fill="#FFFFFF" transform="translate(0,0)"/>
<path d="" fill="#FFFFFF" transform="translate(0,0)"/>
<path d="" fill="#FFFFFF" transform="translate(0,0)"/>
<path d="" fill="#FFFFFF" transform="translate(0,0)"/>
<path d="" fill="#FFFFFF" transform="translate(0,0)"/>
<path d="" fill="#FFFFFF" transform="translate(0,0)"/>
<path d="" fill="#FFFFFF" transform="translate(0,0)"/>
<path d="" fill="#FFFFFF" transform="translate(0,0)"/>
<path d="" fill="#FFFFFF" transform="translate(0,0)"/>
<path d="" fill="#FFFFFF" transform="translate(0,0)"/>
<path d="" fill="#FFFFFF" transform="translate(0,0)"/>
<path d="" fill="#FFFFFF" transform="translate(0,0)"/>
<path d="" fill="#FFFFFF" transform="translate(0,0)"/>
<path d="" fill="#FFFFFF" transform="translate(0,0)"/>
<path d="" fill="#FFFFFF" transform="translate(0,0)"/>
<path d="" fill="#FFFFFF" transform="translate(0,0)"/>
<path d="" fill="#FFFFFF" transform="translate(0,0)"/>
<path d="" fill="#FFFFFF" transform="translate(0,0)"/>
<path d="" fill="#FFFFFF" transform="translate(0,0)"/>
<path d="" fill="#FFFFFF" transform="translate(0,0)"/>
<path d="" fill="#FFFFFF" transform="translate(0,0)"/>
<path d="" fill="#FFFFFF" transform="translate(0,0)"/>
<path d="" fill="#FFFFFF" transform="translate(0,0)"/>
<path d="" fill="#FFFFFF" transform="translate(0,0)"/>
<path d="" fill="#FFFFFF" transform="translate(0,0)"/>
<path d="" fill="#FFFFFF" transform="translate(0,0)"/>
<path d="" fill="#FFFFFF" transform="translate(0,0)"/>
<path d="" fill="#FFFFFF" transform="translate(0,0)"/>
<path d="" fill="#FFFFFF" transform="translate(0,0)"/>
<path d="" fill="#FFFFFF" transform="translate(0,0)"/>
<path d="" fill="#FFFFFF" transform="translate(0,0)"/>
<path d="" fill="#FFFFFF" transform="translate(0,0)"/>
<path d="" fill="#FFFFFF" transform="translate(0,0)"/>
<path d="" fill="#FFFFFF" transform="translate(0,0)"/>
<path d="" fill="#FFFFFF" transform="translate(0,0)"/>
<path d="" fill="#FFFFFF" transform="translate(0,0)"/>
<path d="" fill="#FFFFFF" transform="translate(0,0)"/>
<path d="" fill="#FFFFFF" transform="translate(0,0)"/>
<path d="" fill="#FFFFFF" transform="translate(0,0)"/>
<path d="" fill="#FFFFFF" transform="translate(0,0)"/>
<path d="" fill="#FFFFFF" transform="translate(0,0)"/>
<path d="" fill="#FFFFFF" transform="translate(0,0)"/>
<path d="" fill="#FFFFFF" transform="translate(0,0)"/>
<path d="" fill="#FFFFFF" transform="translate(0,0)"/>
<path d="" fill="#FFFFFF" transform="translate(0,0)"/>
<path d="" fill="#FFFFFF" transform="translate(0,0)"/>
<path d="" fill="#FFFFFF" transform="translate(0,0)"/>
<path d="" fill="#FFFFFF" transform="translate(0,0)"/>
<path d="" fill="#FFFFFF" transform="translate(0,0)"/>
<path d="" fill="#FFFFFF" transform="translate(0,0)"/>
<path d="" fill="#FFFFFF" transform="translate(0,0)"/>
<path d="" fill="#FFFFFF" transform="translate(0,0)"/>
<path d="" fill="#FFFFFF" transform="translate(0,0)"/>
<path d="" fill="#FFFFFF" transform="translate(0,0)"/>
<path d="" fill="#FFFFFF" transform="translate(0,0)"/>
<path d="" fill="#FFFFFF" transform="translate(0,0)"/>
<path d="" fill="#FFFFFF" transform="translate(0,0)"/>
<path d="" fill="#FFFFFF" transform="translate(0,0)"/>
<path d="" fill="#FFFFFF" transform="translate(0,0)"/>
<path d="" fill="#FFFFFF" transform="translate(0,0)"/>
<path d="" fill="#FFFFFF" transform="translate(0,0)"/>
<path d="" fill="#FFFFFF" transform="translate(0,0)"/>
<path d="" fill="#FFFFFF" transform="translate(0,0)"/>
<path d="" fill="#FFFFFF" transform="translate(0,0)"/>
<path d="" fill="#FFFFFF" transform="translate(0,0)"/>
<path d="" fill="#FFFFFF" transform="translate(0,0)"/>
<path d="" fill="#FFFFFF" transform="translate(0,0)"/>
<path d="" fill="#FFFFFF" transform="translate(0,0)"/>
<path d="" fill="#FFFFFF" transform="translate(0,0)"/>
<path d="" fill="#FFFFFF" transform="translate(0,0)"/>
<path d="" fill="#FFFFFF" transform="translate(0,0)"/>
<path d="" fill="#FFFFFF" transform="translate(0,0)"/>
<path d="" fill="#FFFFFF" transform="translate(0,0)"/>
<path d="" fill="#FFFFFF" transform="translate(0,0)"/>
<path d="" fill="#FFFFFF" transform="translate(0,0)"/>
<path d="" fill="#FFFFFF" transform="translate(0,0)"/>
<path d="" fill="#FFFFFF" transform="translate(0,0)"/>
<path d="" fill="#FFFFFF" transform="translate(0,0)"/>
<path d="" fill="#FFFFFF" transform="translate(0,0)"/>
<path d="" fill="#FFFFFF" transform="translate(0,0)"/>
<path d="" fill="#FFFFFF" transform="translate(0,0)"/>
<path d="" fill="#FFFFFF" transform="translate(0,0)"/>
<path d="" fill="#FFFFFF" transform="translate(0,0)"/>
<path d="" fill="#FFFFFF" transform="translate(0,0)"/>
<path d="" fill="#FFFFFF" transform="translate(0,0)"/>
<path d="" fill="#FFFFFF" transform="translate(0,0)"/>
<path d="" fill="#FFFFFF" transform="translate(0,0)"/>
<path d="" fill="#FFFFFF" transform="translate(0,0)"/>
<path d="" fill="#FFFFFF" transform="translate(0,0)"/>
<path d="" fill="#FFFFFF" transform="translate(0,0)"/>
<path d="" fill="#FFFFFF" transform="translate(0,0)"/>
<path d="" fill="#FFFFFF" transform="translate(0,0)"/>
<path d="" fill="#FFFFFF" transform="translate(0,0)"/>
<path d="" fill="#FFFFFF" transform="translate(0,0)"/>
<path d="" fill="#FFFFFF" transform="translate(0,0)"/>
<path d="" fill="#FFFFFF" transform="translate(0,0)"/>
<path d="" fill="#FFFFFF" transform="translate(0,0)"/>
<path d="" fill="#FFFFFF" transform="translate(0,0)"/>
<path d="" fill="#FFFFFF" transform="translate(0,0)"/>
<path d="" fill="#FFFFFF" transform="translate(0,0)"/>
<path d="" fill="#FFFFFF" transform="translate(0,0)"/>
<path d="" fill="#FFFFFF" transform="translate(0,0)"/>
<path d="" fill="#FFFFFF" transform="translate(0,0)"/>
<path d="" fill="#FFFFFF" transform="translate(0,0)"/>
<path d="" fill="#FFFFFF" transform="translate(0,0)"/>
<path d="" fill="#FFFFFF" transform="translate(0,0)"/>
<path d="" fill="#FFFFFF" transform="translate(0,0)"/>
<path d="" fill="#FFFFFF" transform="translate(0,0)"/>
<path d="" fill="#FFFFFF" transform="translate(0,0)"/>
<path d="" fill="#FFFFFF" transform="translate(0,0)"/>
<path d="" fill="#FFFFFF" transform="translate(0,0)"/>
<path d="" fill="#FFFFFF" transform="translate(0,0)"/>
<path d="" fill="#FFFFFF" transform="translate(0,0)"/>
<path d="" fill="#FFFFFF" transform="translate(0,0)"/>
<path d="" fill="#FFFFFF" transform="translate(0,0)"/>
<path d="" fill="#FFFFFF" transform="translate(0,0)"/>
<path d="" fill="#FFFFFF" transform="translate(0,0)"/>
<path d="" fill="#FFFFFF" transform="translate(0,0)"/>
<path d="" fill="#FFFFFF" transform="translate(0,0)"/>
<path d="" fill="#FFFFFF" transform="translate(0,0)"/>
<path d="" fill="#FFFFFF" transform="translate(0,0)"/>
<path d="" fill="#FFFFFF" transform="translate(0,0)"/>
<path d="" fill="#FFFFFF" transform="translate(0,0)"/>
<path d="" fill="#FFFFFF" transform="translate(0,0)"/>
<path d="" fill="#FFFFFF" transform="translate(0,0)"/>
<path d="" fill="#FFFFFF" transform="translate(0,0)"/>
<path d="" fill="#FFFFFF" transform="translate(0,0)"/>
<path d="" fill="#FFFFFF" transform="translate(0,0)"/>
<path d="" fill="#FFFFFF" transform="translate(0,0)"/>
<path d="" fill="#FFFFFF" transform="translate(0,0)"/>
<path d="" fill="#FFFFFF" transform="translate(0,0)"/>
<path d="" fill="#FFFFFF" transform="translate(0,0)"/>
<path d="" fill="#FFFFFF" transform="translate(0,0)"/>
<path d="" fill="#FFFFFF" transform="translate(0,0)"/>
<path d="" fill="#FFFFFF" transform="translate(0,0)"/>
<path d="" fill="#FFFFFF" transform="translate(0,0)"/>
<path d="" fill="#FFFFFF" transform="translate(0,0)"/>
<path d="" fill="#FFFFFF" transform="translate(0,0)"/>
<path d="" fill="#FFFFFF" transform="translate(0,0)"/>
<path d="" fill="#FFFFFF" transform="translate(0,0)"/>
<path d="" fill="#FFFFFF" transform="translate(0,0)"/>
<path d="" fill="#FFFFFF" transform="translate(0,0)"/>
<path d="" fill="#FFFFFF" transform="translate(0,0)"/>
<path d="" fill="#FFFFFF" transform="translate(0,0)"/>
<path d="" fill="#FFFFFF" transform="translate(0,0)"/>
<path d="" fill="#FFFFFF" transform="translate(0,0)"/>
<path d="" fill="#FFFFFF" transform="translate(0,0)"/>
<path d="" fill="#FFFFFF" transform="translate(0,0)"/>
<path d="" fill="#FFFFFF" transform="translate(0,0)"/>
<path d="" fill="#FFFFFF" transform="translate(0,0)"/>
<path d="" fill="#FFFFFF" transform="translate(0,0)"/>
<path d="" fill="#FFFFFF" transform="translate(0,0)"/>
<path d="" fill="#FFFFFF" transform="translate(0,0)"/>
<path d="" fill="#FFFFFF" transform="translate(0,0)"/>
<path d="" fill="#FFFFFF" transform="translate(0,0)"/>
<path d="" fill="#FFFFFF" transform="translate(0,0)"/>
<path d="" fill="#FFFFFF" transform="translate(0,0)"/>
<path d="" fill="#FFFFFF" transform="translate(0,0)"/>
<path d="" fill="#FFFFFF" transform="translate(0,0)"/>
<path d="" fill="#FFFFFF" transform="translate(0,0)"/>
<path d="" fill="#FFFFFF" transform="translate(0,0)"/>
<path d="" fill="#FFFFFF" transform="translate(0,0)"/>
<path d="" fill="#FFFFFF" transform="translate(0,0)"/>
<path d="" fill="#FFFFFF" transform="translate(0,0)"/>
<path d="" fill="#FFFFFF" transform="translate(0,0)"/>
<path d="" fill="#FFFFFF" transform="translate(0,0)"/>
<path d="" fill="#FFFFFF" transform="translate(0,0)"/>
<path d="" fill="#FFFFFF" transform="translate(0,0)"/>
<path d="" fill="#FFFFFF" transform="translate(0,0)"/>
<path d="" fill="#FFFFFF" transform="translate(0,0)"/>
<path d="" fill="#FFFFFF" transform="translate(0,0)"/>
<path d="" fill="#FFFFFF" transform="translate(0,0)"/>
<path d="" fill="#FFFFFF" transform="translate(0,0)"/>
<path d="" fill="#FFFFFF" transform="translate(0,0)"/>
<path d="" fill="#FFFFFF" transform="translate(0,0)"/>
<path d="" fill="#FFFFFF" transform="translate(0,0)"/>
<path d="" fill="#FFFFFF" transform="translate(0,0)"/>
<path d="" fill="#FFFFFF" transform="translate(0,0)"/>
<path d="" fill="#FFFFFF" transform="translate(0,0)"/>
<path d="" fill="#FFFFFF" transform="translate(0,0)"/>
<path d="" fill="#FFFFFF" transform="translate(0,0)"/>
<path d="" fill="#FFFFFF" transform="translate(0,0)"/>
<path d="" fill="#FFFFFF" transform="translate(0,0)"/>
<path d="" fill="#FFFFFF" transform="translate(0,0)"/>
<path d="" fill="#FFFFFF" transform="translate(0,0)"/>
<path d="" fill="#FFFFFF" transform="translate(0,0)"/>
<path d="" fill="#FFFFFF" transform="translate(0,0)"/>
<path d="" fill="#FFFFFF" transform="translate(0,0)"/>
<path d="" fill="#FFFFFF" transform="translate(0,0)"/>
<path d="" fill="#FFFFFF" transform="translate(0,0)"/>
<path d="" fill="#FFFFFF" transform="translate(0,0)"/>
<path d="" fill="#FFFFFF" transform="translate(0,0)"/>
<path d="" fill="#FFFFFF" transform="translate(0,0)"/>
<path d="" fill="#FFFFFF" transform="translate(0,0)"/>
<path d="" fill="#FFFFFF" transform="translate(0,0)"/>
<path d="" fill="#FFFFFF" transform="translate(0,0)"/>
<path d="" fill="#FFFFFF" transform="translate(0,0)"/>
<path d="" fill="#FFFFFF" transform="translate(0,0)"/>
<path d="" fill="#FFFFFF" transform="translate(0,0)"/>
<path d="" fill="#FFFFFF" transform="translate(0,0)"/>
<path d="" fill="#FFFFFF" transform="translate(0,0)"/>
<path d="" fill="#FFFFFF" transform="translate(0,0)"/>
<path d="" fill="#FFFFFF" transform="translate(0,0)"/>
<path d="" fill="#FFFFFF" transform="translate(0,0)"/>
<path d="" fill="#FFFFFF" transform="translate(0,0)"/>
<path d="" fill="#FFFFFF" transform="translate(0,0)"/>
<path d="" fill="#FFFFFF" transform="translate(0,0)"/>
<path d="" fill="#FFFFFF" transform="translate(0,0)"/>
<path d="" fill="#FFFFFF" transform="translate(0,0)"/>
<path d="" fill="#FFFFFF" transform="translate(0,0)"/>
<path d="" fill="#FFFFFF" transform="translate(0,0)"/>
<path d="" fill="#FFFFFF" transform="translate(0,0)"/>
<path d="" fill="#FFFFFF" transform="translate(0,0)"/>
<path d="" fill="#FFFFFF" transform="translate(0,0)"/>
<path d="" fill="#FFFFFF" transform="translate(0,0)"/>
<path d="" fill="#FFFFFF" transform="translate(0,0)"/>
<path d="" fill="#FFFFFF" transform="translate(0,0)"/>
<path d="" fill="#FFFFFF" transform="translate(0,0)"/>
<path d="" fill="#FFFFFF" transform="translate(0,0)"/>
<path d="" fill="#FFFFFF" transform="translate(0,0)"/>
<path d="" fill="#FFFFFF" transform="translate(0,0)"/>
<path d="" fill="#FFFFFF" transform="translate(0,0)"/>
<path d="" fill="#FFFFFF" transform="translate(0,0)"/>
<path d="" fill="#FFFFFF" transform="translate(0,0)"/>
<path d="" fill="#FFFFFF" transform="translate(0,0)"/>
<path d="" fill="#FFFFFF" transform="translate(0,0)"/>
<path d="" fill="#FFFFFF" transform="translate(0,0)"/>
<path d="" fill="#FFFFFF" transform="translate(0,0)"/>
<path d="" fill="#FFFFFF" transform="translate(0,0)"/>
<path d="" fill="#FFFFFF" transform="translate(0,0)"/>
<path d="" fill="#FFFFFF" transform="translate(0,0)"/>
<path d="" fill="#FFFFFF" transform="translate(0,0)"/>
<path d="" fill="#FFFFFF" transform="translate(0,0)"/>
<path d="" fill="#FFFFFF" transform="translate(0,0)"/>
<path d="" fill="#FFFFFF" transform="translate(0,0)"/>
<path d="" fill="#FFFFFF" transform="translate(0,0)"/>
<path d="" fill="#FFFFFF" transform="translate(0,0)"/>
<path d="" fill="#FFFFFF" transform="translate(0,0)"/>
<path d="" fill="#FFFFFF" transform="translate(0,0)"/>
<path d="" fill="#FFFFFF" transform="translate(0,0)"/>
<path d="" fill="#FFFFFF" transform="translate(0,0)"/>
<path d="" fill="#FFFFFF" transform="translate(0,0)"/>
<path d="" fill="#FFFFFF" transform="translate(0,0)"/>
<path d="" fill="#FFFFFF" transform="translate(0,0)"/>
<path d="" fill="#FFFFFF" transform="translate(0,0)"/>
<path d="" fill="#FFFFFF" transform="translate(0,0)"/>
<path d="" fill="#FFFFFF" transform="translate(0,0)"/>
<path d="" fill="#FFFFFF" transform="translate(0,0)"/>
<path d="" fill="#FFFFFF" transform="translate(0,0)"/>
<path d="" fill="#FFFFFF" transform="translate(0,0)"/>
<path d="" fill="#FFFFFF" transform="translate(0,0)"/>
<path d="" fill="#FFFFFF" transform="translate(0,0)"/>
<path d="" fill="#FFFFFF" transform="translate(0,0)"/>
<path d="" fill="#FFFFFF" transform="translate(0,0)"/>
<path d="" fill="#FFFFFF" transform="translate(0,0)"/>
<path d="" fill="#FFFFFF" transform="translate(0,0)"/>
<path d="" fill="#FFFFFF" transform="translate(0,0)"/>
<path d="" fill="#FFFFFF" transform="translate(0,0)"/>
<path d="" fill="#FFFFFF" transform="translate(0,0)"/>
<path d="" fill="#FFFFFF" transform="translate(0,0)"/>
<path d="" fill="#FFFFFF" transform="translate(0,0)"/>
<path d="" fill="#FFFFFF" transform="translate(0,0)"/>
<path d="" fill="#FFFFFF" transform="translate(0,0)"/>
<path d="" fill="#FFFFFF" transform="translate(0,0)"/>
<path d="" fill="#FFFFFF" transform="translate(0,0)"/>
<path d="" fill="#FFFFFF" transform="translate(0,0)"/>
<path d="" fill="#FFFFFF" transform="translate(0,0)"/>
<path d="" fill="#FFFFFF" transform="translate(0,0)"/>
<path d="" fill="#FFFFFF" transform="translate(0,0)"/>
<path d="" fill="#FFFFFF" transform="translate(0,0)"/>
<path d="" fill="#FFFFFF" transform="translate(0,0)"/>
<path d="" fill="#FFFFFF" transform="translate(0,0)"/>
<path d="" fill="#FFFFFF" transform="translate(0,0)"/>
<path d="" fill="#FFFFFF" transform="translate(0,0)"/>
<path d="" fill="#FFFFFF" transform="translate(0,0)"/>
<path d="" fill="#FFFFFF" transform="translate(0,0)"/>
<path d="" fill="#FFFFFF" transform="translate(0,0)"/>
<path d="" fill="#FFFFFF" transform="translate(0,0)"/>
<path d="" fill="#FFFFFF" transform="translate(0,0)"/>
<path d="" fill="#FFFFFF" transform="translate(0,0)"/>
<path d="" fill="#FFFFFF" transform="translate(0,0)"/>
<path d="" fill="#FFFFFF" transform="translate(0,0)"/>
<path d="" fill="#FFFFFF" transform="translate(0,0)"/>
<path d="" fill="#FFFFFF" transform="translate(0,0)"/>
<path d="" fill="#FFFFFF" transform="translate(0,0)"/>
<path d="" fill="#FFFFFF" transform="translate(0,0)"/>
<path d="" fill="#FFFFFF" transform="translate(0,0)"/>
<path d="" fill="#FFFFFF" transform="translate(0,0)"/>
<path d="" fill="#FFFFFF" transform="translate(0,0)"/>
<path d="" fill="#FFFFFF" transform="translate(0,0)"/>
<path d="" fill="#FFFFFF" transform="translate(0,0)"/>
<path d="" fill="#FFFFFF" transform="translate(0,0)"/>
<path d="" fill="#FFFFFF" transform="translate(0,0)"/>
<path d="" fill="#FFFFFF" transform="translate(0,0)"/>
<path d="" fill="#FFFFFF" transform="translate(0,0)"/>
<path d="" fill="#FFFFFF" transform="translate(0,0)"/>
<path d="" fill="#FFFFFF" transform="translate(0,0)"/>
<path d="" fill="#FFFFFF" transform="translate(0,0)"/>
<path d="" fill="#FFFFFF" transform="translate(0,0)"/>
<path d="" fill="#FFFFFF" transform="translate(0,0)"/>
<path d="" fill="#FFFFFF" transform="translate(0,0)"/>
<path d="" fill="#FFFFFF" transform="translate(0,0)"/>
<path d="" fill="#FFFFFF" transform="translate(0,0)"/>
<path d="" fill="#FFFFFF" transform="translate(0,0)"/>
<path d="" fill="#FFFFFF" transform="translate(0,0)"/>
<path d="" fill="#FFFFFF" transform="translate(0,0)"/>
<path d="" fill="#FFFFFF" transform="translate(0,0)"/>
<path d="" fill="#FFFFFF" transform="translate(0,0)"/>
<path d="" fill="#FFFFFF" transform="translate(0,0)"/>
<path d="" fill="#FFFFFF" transform="translate(0,0)"/>
<path d="" fill="#FFFFFF" transform="translate(0,0)"/>
<path d="" fill="#FFFFFF" transform="translate(0,0)"/>
<path d="" fill="#FFFFFF" transform="translate(0,0)"/>
<path d="" fill="#FFFFFF" transform="translate(0,0)"/>
<path d="" fill="#FFFFFF" transform="translate(0,0)"/>
<path d="" fill="#FFFFFF" transform="translate(0,0)"/>
<path d="" fill="#FFFFFF" transform="translate(0,0)"/>
<path d="" fill="#FFFFFF" transform="translate(0,0)"/>
<path d="" fill="#FFFFFF" transform="translate(0,0)"/>
<path d="" fill="#FFFFFF" transform="translate(0,0)"/>
<path d="" fill="#FFFFFF" transform="translate(0,0)"/>
<path d="" fill="#FFFFFF" transform="translate(0,0)"/>
<path d="" fill="#FFFFFF" transform="translate(0,0)"/>
<path d="" fill="#FFFFFF" transform="translate(0,0)"/>
<path d="" fill="#FFFFFF" transform="translate(0,0)"/>
<path d="" fill="#FFFFFF" transform="translate(0,0)"/>
<path d="" fill="#FFFFFF" transform="translate(0,0)"/>
<path d="" fill="#FFFFFF" transform="translate(0,0)"/>
<path d="" fill="#FFFFFF" transform="translate(0,0)"/>
<path d="" fill="#FFFFFF" transform="translate(0,0)"/>
<path d="" fill="#FFFFFF" transform="translate(0,0)"/>
<path d="" fill="#FFFFFF" transform="translate(0,0)"/>
<path d="" fill="#FFFFFF" transform="translate(0,0)"/>
<path d="" fill="#FFFFFF" transform="translate(0,0)"/>
<path d="" fill="#FFFFFF" transform="translate(0,0)"/>
<path d="" fill="#FFFFFF" transform="translate(0,0)"/>
<path d="" fill="#FFFFFF" transform="translate(0,0)"/>
<path d="" fill="#FFFFFF" transform="translate(0,0)"/>
<path d="" fill="#FFFFFF" transform="translate(0,0)"/>
<path d="" fill="#FFFFFF" transform="translate(0,0)"/>
<path d="" fill="#FFFFFF" transform="translate(0,0)"/>
<path d="" fill="#FFFFFF" transform="translate(0,0)"/>
<path d="" fill="#FFFFFF" transform="translate(0,0)"/>
<path d="" fill="#FFFFFF" transform="translate(0,0)"/>
<path d="" fill="#FFFFFF" transform="translate(0,0)"/>
<path d="" fill="#FFFFFF" transform="translate(0,0)"/>
<path d="" fill="#FFFFFF" transform="translate(0,0)"/>
<path d="" fill="#FFFFFF" transform="translate(0,0)"/>
<path d="" fill="#FFFFFF" transform="translate(0,0)"/>
<path d="" fill="#FFFFFF" transform="translate(0,0)"/>
<path d="" fill="#FFFFFF" transform="translate(0,0)"/>
<path d="" fill="#FFFFFF" transform="translate(0,0)"/>
<path d="" fill="#FFFFFF" transform="translate(0,0)"/>
<path d="" fill="#FFFFFF" transform="translate(0,0)"/>
<path d="" fill="#FFFFFF" transform="translate(0,0)"/>
<path d="" fill="#FFFFFF" transform="translate(0,0)"/>
<path d="" fill="#FFFFFF" transform="translate(0,0)"/>
</svg>
